<svg width="28.000000" height="19.000000" viewBox="0 0 28 19" fill="none" xmlns="http://www.w3.org/2000/svg" xmlns:xlink="http://www.w3.org/1999/xlink">
	<desc>
			Created with Pixso.
	</desc>
	<defs>
		<clipPath id="clip3_309">
			<rect id="логотип блин 5" width="28.000000" height="19.000000" fill="white" fill-opacity="0"/>
		</clipPath>
	</defs>
	<g clip-path="url(#clip3_309)">
		<path id="Vector" d="M23.3 12.54L28 18.89L22.04 18.89L14.06 8.42L21.63 8.42C22.78 8.42 23.72 7.52 23.72 6.4C23.72 5.28 22.78 4.38 21.63 4.38L11.08 4.51L8.9 1.65L7.7 0.08L21.4 0C23.22 0 24.87 0.71 26.06 1.87C27.26 3.03 28 4.63 28 6.4C28 9.29 26.02 11.74 23.3 12.54Z" fill="#0066FF" fill-opacity="1.000000" fill-rule="nonzero"/>
		<path id="Vector" d="M6.07 0.05L20.51 19L14.53 19L0 0.07L6.09 0.07L6.07 0.05Z" fill="#0066FF" fill-opacity="1.000000" fill-rule="nonzero"/>
	</g>
</svg>
